<?xml version="1.0" encoding="UTF-8"?>
<svg version="1.1" xmlns="http://www.w3.org/2000/svg" width="175" height="172">
<path d="M0 0 C3.32675291 0.77180667 4.84009513 2.88322381 6.953125 5.453125 C7.819375 6.21625 8.685625 6.979375 9.578125 7.765625 C12.50906927 11.08221983 13.71801557 14.255422 14.953125 18.453125 C15.16453125 19.15308594 15.3759375 19.85304688 15.59375 20.57421875 C15.953125 22.453125 15.953125 22.453125 14.953125 24.453125 C16.603125 24.123125 18.253125 23.793125 19.953125 23.453125 C19.953125 22.463125 19.953125 21.473125 19.953125 20.453125 C20.613125 20.453125 21.273125 20.453125 21.953125 20.453125 C21.64375 19.5559375 21.64375 19.5559375 21.328125 18.640625 C20.953125 16.453125 20.953125 16.453125 22.953125 13.453125 C23.200625 12.669375 23.448125 11.885625 23.703125 11.078125 C24.96995559 8.41778076 25.83594407 7.54989574 28.078125 5.765625 C29.026875 5.0025 29.975625 4.239375 30.953125 3.453125 C30.953125 2.793125 30.953125 2.133125 30.953125 1.453125 C32.74320967 1.23160951 34.53530662 1.02630287 36.328125 0.828125 C37.32585937 0.71210938 38.32359375 0.59609375 39.3515625 0.4765625 C40.21007812 0.46882812 41.06859375 0.46109375 41.953125 0.453125 C46.70746883 5.20746883 48.20551166 8.02193289 48.33203125 14.74975586 C48.33074219 15.53874268 48.32945313 16.32772949 48.328125 17.140625 C48.32941406 17.94701416 48.33070312 18.75340332 48.33203125 19.58422852 C48.23687597 24.93400988 47.56267878 29.12420444 44.828125 33.82421875 C43.52791689 36.24469546 43.88713067 38.14790121 44.453125 40.765625 C45.00129659 43.71204727 45.02266794 46.4627784 44.953125 49.453125 C45.613125 49.453125 46.273125 49.453125 46.953125 49.453125 C48.09083071 55.14165356 48.81440704 60.86927887 46.953125 66.453125 C47.365625 67.13375 47.778125 67.814375 48.203125 68.515625 C51.31268988 73.73525177 52.953125 79.38756286 52.953125 85.453125 C55.263125 85.453125 57.573125 85.453125 59.953125 85.453125 C60.283125 86.443125 60.613125 87.433125 60.953125 88.453125 C61.943125 89.113125 62.933125 89.773125 63.953125 90.453125 C64.31640625 93.5703125 64.31640625 93.5703125 64.265625 97.328125 C64.26175781 98.56304687 64.25789062 99.79796875 64.25390625 101.0703125 C63.97956034 104.15581321 63.58013206 105.87324927 61.953125 108.453125 C75.23488502 111.13176387 75.23488502 111.13176387 87.953125 109.453125 C87.953125 110.113125 87.953125 110.773125 87.953125 111.453125 C89.603125 111.783125 91.253125 112.113125 92.953125 112.453125 C92.953125 118.393125 92.953125 124.333125 92.953125 130.453125 C94.603125 130.123125 96.253125 129.793125 97.953125 129.453125 C97.953125 131.763125 97.953125 134.073125 97.953125 136.453125 C99.603125 136.453125 101.253125 136.453125 102.953125 136.453125 C105.1114445 142.52339858 105.16164814 148.04683076 104.953125 154.453125 C103.963125 154.783125 102.973125 155.113125 101.953125 155.453125 C103.603125 157.763125 105.253125 160.073125 106.953125 162.453125 C102.7410187 170.72133366 102.7410187 170.72133366 97.953125 172.453125 C88.27367319 173.47580518 88.27367319 173.47580518 84.875 170.84375 C84.24078125 170.38484375 83.6065625 169.9259375 82.953125 169.453125 C80.84039969 169.78297187 80.84039969 169.78297187 78.765625 170.828125 C72.91981589 173.0720682 67.88647167 172.69164915 62.140625 170.265625 C61.41875 169.9975 60.696875 169.729375 59.953125 169.453125 C58.61149488 170.10293332 57.27907959 170.77190062 55.953125 171.453125 C51.50776912 172.41405719 47.1999635 172.60891395 42.703125 171.953125 C39.14691707 171.47896394 37.36969669 171.76091709 33.953125 172.453125 C31.78832595 172.55270673 29.6209066 172.60124694 27.45385742 172.61425781 C26.15868698 172.62386536 24.86351654 172.6334729 23.52909851 172.64337158 C22.1222654 172.64822029 20.71543022 172.65249894 19.30859375 172.65625 C18.5950152 172.65907738 17.88143665 172.66190475 17.14623451 172.66481781 C13.3698655 172.67977462 9.59353435 172.68902616 5.81713867 172.69335938 C1.93364172 172.69883838 -1.94950363 172.7228641 -5.83289051 172.75133133 C-8.83478277 172.77003529 -11.83659163 172.77516742 -14.83853722 172.77669525 C-16.26935434 172.77970491 -17.70017059 172.78767587 -19.13092995 172.80088043 C-26.92436914 172.8676728 -32.87795922 172.47507104 -40.046875 169.453125 C-42.1615845 170.01400182 -43.98281856 170.82741864 -45.97265625 171.73046875 C-49.73828006 173.04240925 -53.26026092 172.48583793 -57.046875 171.453125 C-62.32982213 168.66213406 -66.1329664 165.1948508 -68.046875 159.453125 C-68.21932795 157.22819923 -68.31354641 154.99675352 -68.359375 152.765625 C-68.39675781 151.58613281 -68.43414062 150.40664062 -68.47265625 149.19140625 C-68.046875 145.453125 -68.046875 145.453125 -66.07421875 142.05859375 C-62.54780099 135.59258047 -63.36250972 127.63478479 -63.296875 120.453125 C-63.26867817 118.89970681 -63.23874562 117.34631911 -63.20703125 115.79296875 C-63.13360428 112.01307591 -63.08376334 108.23354378 -63.046875 104.453125 C-56.03522432 104.41308385 -49.04863421 104.43696527 -42.046875 104.828125 C-41.32371094 104.8590625 -40.60054687 104.89 -39.85546875 104.921875 C-36.1493336 105.12663385 -33.21044873 105.42646058 -30.046875 107.453125 C-30.046875 108.113125 -30.046875 108.773125 -30.046875 109.453125 C-27.736875 109.453125 -25.426875 109.453125 -23.046875 109.453125 C-23.52125 108.875625 -23.995625 108.298125 -24.484375 107.703125 C-27.64560027 103.15096062 -27.57581114 97.82903954 -27.046875 92.453125 C-24.98130034 87.45226004 -21.71264301 85.78600901 -17.046875 83.453125 C-16.87423174 81.86480701 -16.70257921 80.27637674 -16.53515625 78.6875 C-15.70293934 74.87927543 -13.79347981 71.54464477 -12.0078125 68.1015625 C-10.88115629 64.99638807 -11.20031429 63.59391532 -12.046875 60.453125 C-12.1569587 58.93499396 -12.2211397 57.41268449 -12.234375 55.890625 C-12.24855469 55.14683594 -12.26273438 54.40304688 -12.27734375 53.63671875 C-12.01821801 51.18161216 -11.19263766 49.61784655 -10.046875 47.453125 C-10.046875 46.69 -10.046875 45.926875 -10.046875 45.140625 C-10.046875 42.453125 -10.046875 42.453125 -8.859375 38.953125 C-7.63332267 35.53808318 -7.63332267 35.53808318 -9.421875 33.23046875 C-11.46016288 29.74676038 -11.83585908 26.45325477 -12.234375 22.515625 C-12.31623047 21.82533203 -12.39808594 21.13503906 -12.48242188 20.42382812 C-13.70623683 9.57404011 -13.70623683 9.57404011 -11.796875 6.328125 C-11.219375 5.709375 -10.641875 5.090625 -10.046875 4.453125 C-9.49 3.710625 -8.933125 2.968125 -8.359375 2.203125 C-5.58788513 0.10578131 -3.45315174 -0.17905231 0 0 Z " fill="#8790F5" transform="translate(68.046875,-0.453125)"/>
<path d="M0 0 C4.70924905 0.6891584 6.7945913 1.39378333 9.8125 5.25 C12.44470151 10.24906013 12.38057318 15.8353283 12.5625 21.375 C13.33335938 21.43558594 14.10421875 21.49617188 14.8984375 21.55859375 C15.90132812 21.64238281 16.90421875 21.72617187 17.9375 21.8125 C19.43410156 21.93431641 19.43410156 21.93431641 20.9609375 22.05859375 C23.5625 22.375 23.5625 22.375 25.5625 23.375 C25.645 22.42625 25.7275 21.4775 25.8125 20.5 C26.92540085 12.89517752 29.63923647 6.33773431 35.5625 1.375 C35.8925 1.045 36.2225 0.715 36.5625 0.375 C38.875 0 38.875 0 41.5625 0.375 C44.30484935 2.52440895 45.36975154 4.29703637 45.984375 7.734375 C46.3358774 14.49103219 44.6233907 19.58246182 41.75390625 25.6484375 C40.56224854 28.37557548 39.74193754 30.40277811 39.5625 33.375 C40.51623189 35.39747262 41.52286178 37.39531508 42.5625 39.375 C43.24623673 42.04211588 43.82734648 44.61351437 44.3125 47.3125 C44.45042969 47.98990234 44.58835937 48.66730469 44.73046875 49.36523438 C45.5893909 53.98304777 45.28884981 57.77097171 44.5625 62.375 C45.50261682 64.07616376 46.51145617 65.74004293 47.5625 67.375 C49.24167699 72.7159967 49.79959923 77.80316799 49.5625 83.375 C47.5825 84.365 47.5825 84.365 45.5625 85.375 C45.5625 86.365 45.5625 87.355 45.5625 88.375 C45.9646875 87.89804688 46.366875 87.42109375 46.78125 86.9296875 C48.93603287 85.04897789 50.24472096 84.80995569 53.0625 84.5 C53.8359375 84.39945312 54.609375 84.29890625 55.40625 84.1953125 C57.5625 84.375 57.5625 84.375 59.28515625 85.66796875 C61.43049563 88.53498193 61.50439544 90.8306221 61.5625 94.375 C60.26789849 98.54989837 58.49070195 101.56892989 55.1875 104.4375 C51.78586822 105.65236849 50.00343861 105.45029331 46.5625 104.375 C43.6875 102.75 43.6875 102.75 41.5625 100.375 C41.25 96.625 41.25 96.625 41.5625 93.375 C41.32015625 93.98988281 41.0778125 94.60476562 40.828125 95.23828125 C37.33595006 103.65979543 37.33595006 103.65979543 33.5625 105.375 C30.8125 105.5625 30.8125 105.5625 28.5625 105.375 C28.2325 104.385 27.9025 103.395 27.5625 102.375 C26.5725 102.87 26.5725 102.87 25.5625 103.375 C24.30012269 100.85024538 24.46393596 99.06299534 24.5 96.25 C24.50902344 95.33992188 24.51804688 94.42984375 24.52734375 93.4921875 C24.53894531 92.79351562 24.55054688 92.09484375 24.5625 91.375 C23.9025 94.345 23.2425 97.315 22.5625 100.375 C20.9125 100.375 19.2625 100.375 17.5625 100.375 C17.2325 98.395 16.9025 96.415 16.5625 94.375 C15.9025 97.675 15.2425 100.975 14.5625 104.375 C13.5725 103.385 13.5725 103.385 12.5625 102.375 C12.0675 103.86 12.0675 103.86 11.5625 105.375 C10.2425 105.375 8.9225 105.375 7.5625 105.375 C7.5625 104.385 7.5625 103.395 7.5625 102.375 C6.9025 102.375 6.2425 102.375 5.5625 102.375 C5.2325 103.035 4.9025 103.695 4.5625 104.375 C1.77605437 100.47397612 -0.11889111 96.99013112 -1.4375 92.375 C-1.1075 95.345 -0.7775 98.315 -0.4375 101.375 C-1.9225 100.88 -1.9225 100.88 -3.4375 100.375 C-3.623125 101.014375 -3.80875 101.65375 -4 102.3125 C-5.4375 104.375 -5.4375 104.375 -8.625 105.5 C-13.07616065 105.35406031 -14.80563849 104.61016106 -17.9921875 101.609375 C-20.91758775 97.08686434 -21.0549057 91.63762365 -21.4375 86.375 C-16.7890625 82.40625 -16.7890625 82.40625 -13.625 82.125 C-12.903125 82.2075 -12.18125 82.29 -11.4375 82.375 C-11.33953125 81.818125 -11.2415625 81.26125 -11.140625 80.6875 C-10.03340513 75.03686065 -8.22044806 70.39876339 -5.4375 65.375 C-5.1075 64.715 -4.7775 64.055 -4.4375 63.375 C-4.9325 62.22 -5.4275 61.065 -5.9375 59.875 C-7.64340699 55.60637302 -7.40602907 52.40775818 -6.765625 47.91796875 C-6.26728711 44.05585014 -6.37476367 40.26465275 -6.4375 36.375 C-5.4475 36.375 -4.4575 36.375 -3.4375 36.375 C-3.1075 35.385 -2.7775 34.395 -2.4375 33.375 C-1.4475 32.88 -1.4475 32.88 -0.4375 32.375 C-1.39364628 29.92864375 -2.36627277 27.52265353 -3.5078125 25.15625 C-6.59659371 18.47533064 -7.78536846 11.68916856 -6.4375 4.375 C-4.33903344 1.73991933 -3.35820745 0.5166473 0 0 Z " fill="#C7F1F0" transform="translate(66.4375,4.625)"/>
<path d="M0 0 C3.32675291 0.77180667 4.84009513 2.88322381 6.953125 5.453125 C8.2525 6.5978125 8.2525 6.5978125 9.578125 7.765625 C12.50906927 11.08221983 13.71801557 14.255422 14.953125 18.453125 C15.16453125 19.15308594 15.3759375 19.85304688 15.59375 20.57421875 C15.953125 22.453125 15.953125 22.453125 14.953125 24.453125 C16.603125 24.123125 18.253125 23.793125 19.953125 23.453125 C19.953125 22.463125 19.953125 21.473125 19.953125 20.453125 C20.613125 20.453125 21.273125 20.453125 21.953125 20.453125 C21.746875 19.855 21.540625 19.256875 21.328125 18.640625 C20.953125 16.453125 20.953125 16.453125 22.953125 13.453125 C23.200625 12.669375 23.448125 11.885625 23.703125 11.078125 C24.96995559 8.41778076 25.83594407 7.54989574 28.078125 5.765625 C29.026875 5.0025 29.975625 4.239375 30.953125 3.453125 C30.953125 2.793125 30.953125 2.133125 30.953125 1.453125 C32.74320967 1.23160951 34.53530662 1.02630287 36.328125 0.828125 C37.32585937 0.71210938 38.32359375 0.59609375 39.3515625 0.4765625 C40.21007812 0.46882812 41.06859375 0.46109375 41.953125 0.453125 C46.70746883 5.20746883 48.20551166 8.02193289 48.33203125 14.74975586 C48.33074219 15.53874268 48.32945313 16.32772949 48.328125 17.140625 C48.33005859 18.35020874 48.33005859 18.35020874 48.33203125 19.58422852 C48.23687597 24.93400988 47.56267878 29.12420444 44.828125 33.82421875 C43.52791689 36.24469546 43.88713067 38.14790121 44.453125 40.765625 C45.00129659 43.71204727 45.02266794 46.4627784 44.953125 49.453125 C45.613125 49.453125 46.273125 49.453125 46.953125 49.453125 C48.09083071 55.14165356 48.81440704 60.86927887 46.953125 66.453125 C47.365625 67.13375 47.778125 67.814375 48.203125 68.515625 C51.31268988 73.73525177 52.953125 79.38756286 52.953125 85.453125 C55.263125 85.453125 57.573125 85.453125 59.953125 85.453125 C60.283125 86.443125 60.613125 87.433125 60.953125 88.453125 C61.613125 89.113125 62.273125 89.773125 62.953125 90.453125 C60.9469061 90.15953199 58.94800734 89.81583088 56.953125 89.453125 C55.756875 89.288125 54.560625 89.123125 53.328125 88.953125 C49.60591755 87.29881058 49.2247306 86.7795768 47.578125 83.265625 C46.09007678 79.36028325 45.52086569 75.58952148 44.953125 71.453125 C44.416875 70.793125 43.880625 70.133125 43.328125 69.453125 C41.953125 67.453125 41.953125 67.453125 42.4453125 64.33203125 C42.99990126 60.09582633 42.544589 56.52323559 41.703125 52.390625 C41.51943359 51.3687207 41.51943359 51.3687207 41.33203125 50.32617188 C40.68404531 46.98679879 39.86761691 44.29030001 38.28125 41.26953125 C36.72042596 37.95966614 36.78642587 36.86182198 37.953125 33.453125 C38.77811848 31.56510714 39.63456946 29.69064126 40.515625 27.828125 C42.97381133 22.05673101 44.18489617 16.69409893 42.953125 10.453125 C41.66984668 8.1629188 41.66984668 8.1629188 39.953125 6.453125 C37.54049205 5.70227394 37.54049205 5.70227394 34.953125 6.453125 C28.9353118 10.51514891 26.91155182 17.71947025 24.953125 24.453125 C24.76837676 27.22481003 24.76837676 27.22481003 24.953125 29.453125 C24.12554687 29.23849609 24.12554687 29.23849609 23.28125 29.01953125 C20.76597731 28.4075941 18.24269992 27.89185689 15.703125 27.390625 C14.81109375 27.21402344 13.9190625 27.03742187 13 26.85546875 C12.32453125 26.72269531 11.6490625 26.58992188 10.953125 26.453125 C10.83195312 25.80085938 10.71078125 25.14859375 10.5859375 24.4765625 C9.16886095 16.22644114 9.16886095 16.22644114 5.828125 8.640625 C2.86092035 6.76139539 -0.5511447 6.12892421 -4.046875 6.453125 C-5.89682024 7.48944679 -5.89682024 7.48944679 -7.046875 9.453125 C-8.36262352 17.90473486 -6.69344864 24.89380446 -3.046875 32.453125 C-2.3697547 34.11557209 -1.7003259 35.78123261 -1.046875 37.453125 C-2.38020833 38.78645833 -3.71354167 40.11979167 -5.046875 41.453125 C-6.366875 41.453125 -7.686875 41.453125 -9.046875 41.453125 C-8.82 40.56625 -8.593125 39.679375 -8.359375 38.765625 C-7.70824893 35.4862524 -7.70824893 35.4862524 -9.453125 33.2421875 C-11.44867975 29.74996668 -11.83688388 26.44312896 -12.234375 22.515625 C-12.31623047 21.82533203 -12.39808594 21.13503906 -12.48242188 20.42382812 C-13.70623683 9.57404011 -13.70623683 9.57404011 -11.796875 6.328125 C-11.219375 5.709375 -10.641875 5.090625 -10.046875 4.453125 C-9.49 3.710625 -8.933125 2.968125 -8.359375 2.203125 C-5.58788513 0.10578131 -3.45315174 -0.17905231 0 0 Z " fill="#B59EE2" transform="translate(68.046875,-0.453125)"/>
<path d="M0 0 C1.65 0 3.3 0 5 0 C5.33 4.29 5.66 8.58 6 13 C7.65 12.34 9.3 11.68 11 11 C11.33 7.7 11.66 4.4 12 1 C13.98 1 15.96 1 18 1 C18 7.27 18 13.54 18 20 C19.65 20 21.3 20 23 20 C23 21.98 23 23.96 23 26 C24.98 26 26.96 26 29 26 C29 27.65 29 29.3 29 31 C27.02 31 25.04 31 23 31 C23 35.29 23 39.58 23 44 C25.475 43.505 25.475 43.505 28 43 C28.66 44.32 29.32 45.64 30 47 C28.12785559 49.49619254 27.2104846 49.96865123 24.0625 50.4375 C20.22831347 49.88975907 19.30989138 49.07161145 17 46 C16.609375 42.546875 16.609375 42.546875 16.75 38.75 C16.78609375 37.48671875 16.8221875 36.2234375 16.859375 34.921875 C16.90578125 33.95765625 16.9521875 32.9934375 17 32 C15.35 32 13.7 32 12 32 C12 31.34 12 30.68 12 30 C11.34 30 10.68 30 10 30 C9.67 30.99 9.34 31.98 9 33 C5.77328644 34.38287724 3.33859562 33.72185851 0 33 C-1.20561184 33.98267859 -1.20561184 33.98267859 -1.09765625 35.84765625 C-1.08605469 36.57855469 -1.07445312 37.30945313 -1.0625 38.0625 C-1.041875 39.361875 -1.02125 40.66125 -1 42 C1.56148445 42.07115235 3.71212955 42.0822487 6.1875 41.375 C6.785625 41.25125 7.38375 41.1275 8 41 C8.66 41.66 9.32 42.32 10 43 C9.8125 45 9.8125 45 9 47 C5.32705125 49.4486325 2.26731035 49.83183438 -2 49 C-5.21954645 46.46546343 -6.70432435 44.88702695 -8 41 C-8.37315714 35.96237862 -8.05123541 33.06831388 -5 29 C-4.01979625 27.9805881 -3.02196992 26.97753644 -2 26 C-1.34 25.01 -0.68 24.02 0 23 C0.62648437 23.09539062 1.25296875 23.19078125 1.8984375 23.2890625 C2.71570313 23.39992187 3.53296875 23.51078125 4.375 23.625 C5.18710938 23.74101562 5.99921875 23.85703125 6.8359375 23.9765625 C7.55007812 23.98429687 8.26421875 23.99203125 9 24 C11.1385485 21.8614515 11.42655063 20.86724686 12 18 C11.34 18.33 10.68 18.66 10 19 C4.60521739 19.45913043 4.60521739 19.45913043 2.1875 17.625 C-0.42672464 14.04763996 -0.10234262 11.25768872 -0.0625 6.875 C-0.05347656 5.59367187 -0.04445312 4.31234375 -0.03515625 2.9921875 C-0.02355469 2.00476563 -0.01195312 1.01734375 0 0 Z " fill="#F4ED9F" transform="translate(137,116)"/>
<path d="M0 0 C0.99 0.33 1.98 0.66 3 1 C3.16350124 12.22708505 3.16350124 12.22708505 2.3125 16.25 C1.96523414 19.30593955 2.44569657 20.27008502 3.6875 23 C4.546875 25.078125 4.546875 25.078125 5 27 C3.4375 29.75 3.4375 29.75 2.234375 31.15625 C0.53457647 33.69518957 -0.01450285 36.3100105 -0.8125 39.25 C-1.79296875 42.421875 -1.79296875 42.421875 -3 45 C-6.625 46.5 -6.625 46.5 -10 47 C-11.70455456 49.32098152 -12.00314344 50.7363438 -11.96875 53.62109375 C-10.96868233 60.05993325 -10.96868233 60.05993325 -7.3125 65.25 C-3.25457067 67.39381172 -1.34909001 67.33818154 3 66 C3.66 65.01 4.32 64.02 5 63 C5.66 63 6.32 63 7 63 C6.67 59.37 6.34 55.74 6 52 C7.8272911 54.74093665 8.93698178 57.13825324 10.125 60.1875 C10.47820312 61.08855469 10.83140625 61.98960938 11.1953125 62.91796875 C11.46085937 63.60503906 11.72640625 64.29210937 12 65 C13.32 65 14.64 65 16 65 C16 65.99 16 66.98 16 68 C17.32 68 18.64 68 20 68 C20.495 66.02 20.495 66.02 21 64 C21.99 64.495 21.99 64.495 23 65 C23.33 61.04 23.66 57.08 24 53 C25.9955516 56.99110319 26.19546065 58.69986566 26 63 C27.65 63 29.3 63 31 63 C31.04898438 62.36191406 31.09796875 61.72382812 31.1484375 61.06640625 C31.22320312 60.24011719 31.29796875 59.41382813 31.375 58.5625 C31.44460937 57.73878906 31.51421875 56.91507813 31.5859375 56.06640625 C31.72257812 55.38449219 31.85921875 54.70257813 32 54 C32.66 53.67 33.32 53.34 34 53 C34 56.63 34 60.26 34 64 C35.32 64.33 36.64 64.66 38 65 C37.505 66.485 37.505 66.485 37 68 C38.65 68 40.3 68 42 68 C42.495 66.02 42.495 66.02 43 64 C43.33 64.66 43.66 65.32 44 66 C47.42931954 62.2440786 48.56429083 57.76533255 50 53 C50.33 53 50.66 53 51 53 C51.125 59.625 51.125 59.625 50 63 C50.598125 63.28875 51.19625 63.5775 51.8125 63.875 C54 65 54 65 57 67 C60.52443084 66.85002422 62.4491803 66.42841532 65.25 64.25 C68.20017716 60.45691507 69.0793435 58.17031661 68.75 53.3125 C68.29616483 49.94049594 68.29616483 49.94049594 66 48 C61.52801485 47.74100472 57.94592101 48.23864894 54.4375 51.0625 C53.963125 51.701875 53.48875 52.34125 53 53 C53.3125 50.625 53.3125 50.625 54 48 C54.99 47.34 55.98 46.68 57 46 C58.20450304 43.44816596 58.20450304 43.44816596 59 41 C59.495 42.98 59.495 42.98 60 45 C60.86625 44.938125 61.7325 44.87625 62.625 44.8125 C66.44199033 45.02455502 68.71077536 46.12044307 72 48 C71.58778173 60.73754448 71.58778173 60.73754448 67 66 C66.55140625 66.53753906 66.1028125 67.07507813 65.640625 67.62890625 C62.99556555 69.83942022 60.54739981 69.40208515 57.23046875 69.3046875 C54.2960574 68.90383971 52.32519291 67.80014935 50 66 C49.5875 66.474375 49.175 66.94875 48.75 67.4375 C45.83140635 70.04338719 43.35798796 69.97442943 39.5 70.25 C35.85043817 69.98931701 34.50261232 69.60271681 32 67 C32 66.34 32 65.68 32 65 C29.69 65 27.38 65 25 65 C25.33 66.32 25.66 67.64 26 69 C21.59175441 70.4694152 16.42208811 71.17016493 12.1484375 69.10546875 C10.71382044 68.14339143 9.34882941 67.07906353 8 66 C5.3094472 67.22007944 5.3094472 67.22007944 3 69 C-0.72344639 69.54050028 -4.24055985 70 -8 70 C-8.28875 69.401875 -8.5775 68.80375 -8.875 68.1875 C-10.95202506 64.02297418 -10.95202506 64.02297418 -15 62 C-15 61.34 -15 60.68 -15 60 C-15.66 59.67 -16.32 59.34 -17 59 C-17.57685009 49.19354839 -17.57685009 49.19354839 -14 45 C-11.7215486 43.44398441 -9.46076366 42.23038183 -7 41 C-6.82735674 39.41168201 -6.65570421 37.82325174 -6.48828125 36.234375 C-5.65606434 32.42615043 -3.74660481 29.09151977 -1.9609375 25.6484375 C-0.83428129 22.54326307 -1.15343929 21.14079032 -2 18 C-2.1100837 16.48186896 -2.1742647 14.95955949 -2.1875 13.4375 C-2.20167969 12.69371094 -2.21585938 11.94992188 -2.23046875 11.18359375 C-1.97103451 8.72556424 -1.14136682 7.17083494 0 5 C0.16750414 2.33290931 0.16750414 2.33290931 0 0 Z " fill="#C3AAE9" transform="translate(58,42)"/>
<path d="M0 0 C1.98 0 3.96 0 6 0 C7.86328125 1.8984375 7.86328125 1.8984375 9.3125 4.375 C10.04919922 5.59316406 10.04919922 5.59316406 10.80078125 6.8359375 C11.56162768 8.20893074 12.29800317 9.59600634 13 11 C13.33 7.37 13.66 3.74 14 0 C15.98 0 17.96 0 20 0 C20 8.25 20 16.5 20 25 C18.02 25 16.04 25 14 25 C11.69 20.71 9.38 16.42 7 12 C6.67 16.29 6.34 20.58 6 25 C4.02 25 2.04 25 0 25 C0 16.75 0 8.5 0 0 Z " fill="#F6EF9D" transform="translate(12,111)"/>
<path d="M0 0 C2.87029869 1.79393668 4.49131638 2.98263276 6 6 C6.54930958 11.37689567 6.54185108 15.64079868 3 20 C-0.69990228 21.84995114 -4.96167141 21.46986842 -9 21 C-12.55680172 18.89495409 -13.69468936 17.91593192 -15 14 C-15.37066773 8.99598565 -15.09881835 6.01698676 -12 2 C-7.98141405 -0.6790573 -4.72358279 -0.69610694 0 0 Z " fill="#E7ACD9" transform="translate(44,144)"/>
<path d="M0 0 C2.5 2.5 2.5 2.5 5 5 C5.9075 5.680625 6.815 6.36125 7.75 7.0625 C11.21692371 11.58876151 10.90243471 16.43877867 11 22 C10.01 21.67 9.02 21.34 8 21 C7.814375 21.639375 7.62875 22.27875 7.4375 22.9375 C6 25 6 25 2.8125 26.125 C-1.63866065 25.97906031 -3.36813849 25.23516106 -6.5546875 22.234375 C-9.48008775 17.71186434 -9.6174057 12.26262365 -10 7 C-5.3515625 3.03125 -5.3515625 3.03125 -2.1875 2.75 C-1.465625 2.8325 -0.74375 2.915 0 3 C0 2.01 0 1.02 0 0 Z " fill="#CCEFF3" transform="translate(55,84)"/>
<path d="M0 0 C2.78515442 1.63267673 3.02006762 3.0682299 3.9375 6.1875 C4.01708277 11.04204916 2.78924756 14.07210391 0 18 C-2.88566021 20.50596808 -4.18504286 21.01697827 -8 20.9375 C-11.74131079 19.76834038 -13.50408755 19.08318597 -16 16 C-16.42147831 12.29739307 -16.28781212 8.7095784 -16 5 C-15.22527344 4.70351562 -14.45054688 4.40703125 -13.65234375 4.1015625 C-10.94736461 3.07824591 -10.94736461 3.07824591 -8.5625 1.375 C-5.42753484 -0.30717643 -3.51083559 -0.45793508 0 0 Z " fill="#CDEDF2" transform="translate(124,89)"/>
<path d="M0 0 C3 1.5625 3 1.5625 5 4 C5.3125 7.75 5.3125 7.75 5 11 C0.71 11 -3.58 11 -8 11 C-7.67 11.99 -7.34 12.98 -7 14 C-6.0925 14 -5.185 14 -4.25 14 C-1.83333333 14 0.58333333 14 3 14 C3.66 15.32 4.32 16.64 5 18 C2.37072604 20.74359022 0.23366026 21.26486519 -3.4375 21.375 C-7.36506084 21.24559108 -9.88239456 20.53305442 -13 18 C-14.99478184 14.01043632 -14.6422777 9.32757983 -14 5 C-10.84019264 -0.4801087 -5.67100015 -0.81014288 0 0 Z " fill="#E7ACD9" transform="translate(121,144)"/>
<path d="M0 0 C1.98 0 3.96 0 6 0 C6.33 0.66 6.66 1.32 7 2 C7.99 1.34 8.98 0.68 10 0 C11.9375 -0.3359375 11.9375 -0.3359375 14 -0.375 C14.680625 -0.40335938 15.36125 -0.43171875 16.0625 -0.4609375 C18 0 18 0 19.73828125 1.4765625 C21.60693446 5.21386891 21.32051926 8.63663509 21.1875 12.75 C21.16719727 13.93916016 21.16719727 13.93916016 21.14648438 15.15234375 C21.11125223 17.10185564 21.05744821 19.05101626 21 21 C18.69 21 16.38 21 14 21 C14 16.38 14 11.76 14 7 C12.02 7 10.04 7 8 7 C6.12175109 8.87824891 6.60897603 12.03935276 6.4375 14.5625 C6.31181641 16.35880859 6.31181641 16.35880859 6.18359375 18.19140625 C6.12300781 19.11824219 6.06242187 20.04507813 6 21 C3.69 21 1.38 21 -1 21 C-0.67 14.07 -0.34 7.14 0 0 Z " fill="#E8ACD9" transform="translate(81,144)"/>
<path d="M0 0 C2.2877649 1.45262949 3.34552667 2.79403556 5 5 C1.25 8 1.25 8 -1 8 C-1 7.34 -1 6.68 -1 6 C-3.41645782 5.83312552 -3.41645782 5.83312552 -6 6 C-8.60704898 8.60704898 -8.23905333 10.47338241 -8.265625 14.02734375 C-8.10382514 16.31952326 -8.10382514 16.31952326 -6 19 C-4.88625 18.7525 -4.88625 18.7525 -3.75 18.5 C-1 18 -1 18 3 18 C3.66 19.32 4.32 20.64 5 22 C1.98976756 25.10733672 -0.2416936 26.32938338 -4.5 26.5 C-8.79203588 26.30003826 -11.03738932 25.23193892 -14 22 C-16.71466727 17.50741684 -16.53171325 13.10766969 -16 8 C-12.99063338 -0.02497766 -8.01745786 -1.31496522 0 0 Z " fill="#E8ACD9" transform="translate(22,139)"/>
<path d="M0 0 C2.5625 1.5625 2.5625 1.5625 4 4 C4.25 7.75 4.25 7.75 4 11 C-0.29 11 -4.58 11 -9 11 C-8.67 11.99 -8.34 12.98 -8 14 C-4.65747276 14.07427838 -2.1964086 14.06546953 1 13 C1.99 13.99 2.98 14.98 4 16 C3.1875 17.9375 3.1875 17.9375 2 20 C-2.08111083 21.36037028 -5.73729696 21.62708766 -10 21 C-13.0625 19.125 -13.0625 19.125 -15 16 C-15.91317618 11.02645119 -15.78663343 7.28483461 -13.125 2.9375 C-9.13243107 -0.70278344 -5.21338643 -0.6482008 0 0 Z " fill="#F4ED9F" transform="translate(112,115)"/>
<path d="M0 0 C2.31 0 4.62 0 7 0 C7 0.66 7 1.32 7 2 C7.99 1.34 8.98 0.68 10 0 C16.90410959 -0.76712329 16.90410959 -0.76712329 20.5 1.75 C23.22721089 7.65895692 22.83059995 14.79381969 21 21 C19.02 21 17.04 21 15 21 C15 16.05 15 11.1 15 6 C12.36 6.66 9.72 7.32 7 8 C6.67 12.29 6.34 16.58 6 21 C4.02 21 2.04 21 0 21 C0 14.07 0 7.14 0 0 Z " fill="#E8ACD9" transform="translate(54,144)"/>
<path d="M0 0 C0.33 0 0.66 0 1 0 C1 1.65 1 3.3 1 5 C2.65 5 4.3 5 6 5 C6 6.98 6 8.96 6 11 C7.98 11 9.96 11 12 11 C12 12.65 12 14.3 12 16 C10.02 16 8.04 16 6 16 C6 20.29 6 24.58 6 29 C7.65 28.67 9.3 28.34 11 28 C11.66 29.32 12.32 30.64 13 32 C11.12785559 34.49619254 10.2104846 34.96865123 7.0625 35.4375 C3.22831347 34.88975907 2.30989138 34.07161145 0 31 C-0.390625 27.546875 -0.390625 27.546875 -0.25 23.75 C-0.21390625 22.48671875 -0.1778125 21.2234375 -0.140625 19.921875 C-0.07101563 18.47554687 -0.07101563 18.47554687 0 17 C-1.65 17 -3.3 17 -5 17 C-5 15.35 -5 13.7 -5 12 C-4.01 11.67 -3.02 11.34 -2 11 C-0.85185003 8.70370006 -0.69230191 6.92301914 -0.4375 4.375 C-0.35371094 3.55773437 -0.26992187 2.74046875 -0.18359375 1.8984375 C-0.12300781 1.27195313 -0.06242188 0.64546875 0 0 Z " fill="#E4ACD9" transform="translate(154,131)"/>
<path d="M0 0 C1.98 0 3.96 0 6 0 C6.06058594 0.75925781 6.12117188 1.51851563 6.18359375 2.30078125 C6.26738281 3.29464844 6.35117187 4.28851563 6.4375 5.3125 C6.51871094 6.29863281 6.59992187 7.28476563 6.68359375 8.30078125 C6.91812559 11.09375599 6.91812559 11.09375599 8 14 C9.32 13.67 10.64 13.34 12 13 C12.33 8.71 12.66 4.42 13 0 C14.98 0 16.96 0 19 0 C19.68877551 13.96683673 19.68877551 13.96683673 17.125 17.8125 C14.18803467 20.83584667 13.44742902 20.96391701 9.125 21.3125 C5.96585234 21.27809912 5.20115512 21.14957689 2.5625 19.1875 C-0.33372722 15.1327819 -0.10697213 11.65996187 -0.0625 6.8125 C-0.05347656 5.54019531 -0.04445312 4.26789063 -0.03515625 2.95703125 C-0.02355469 1.98121094 -0.01195312 1.00539063 0 0 Z " fill="#F6EF9D" transform="translate(37,116)"/>
<path d="M0 0 C0.87785156 0.01546875 1.75570312 0.0309375 2.66015625 0.046875 C4.9375 0.25 4.9375 0.25 6.9375 1.25 C6.6075 2.9 6.2775 4.55 5.9375 6.25 C3.2975 5.59 0.6575 4.93 -2.0625 4.25 C-0.88898048 7.77055855 -0.15927617 8.07223387 2.9375 9.875 C6.89402174 12.20652174 6.89402174 12.20652174 7.9375 13.25 C8.375 16.5625 8.375 16.5625 7.9375 20.25 C4.97890359 22.99726809 2.93214325 24.10494786 -1.0625 24.6875 C-4.53752031 24.1807262 -7.02776003 22.98413713 -10.0625 21.25 C-9.4025 19.27 -8.7425 17.29 -8.0625 15.25 C-4.7625 16.24 -1.4625 17.23 1.9375 18.25 C0.76398048 14.72944145 0.03427617 14.42776613 -3.0625 12.625 C-7.01902174 10.29347826 -7.01902174 10.29347826 -8.0625 9.25 C-8.52759279 3.9014329 -8.52759279 3.9014329 -6.86328125 1.5703125 C-4.46632482 -0.18710892 -2.94346911 -0.08670012 0 0 Z " fill="#F3EC9F" transform="translate(86.0625,113.75)"/>
<path d="M0 0 C0.99 0.33 1.98 0.66 3 1 C3.16350124 12.22708505 3.16350124 12.22708505 2.3125 16.25 C1.96523414 19.30593955 2.44569657 20.27008502 3.6875 23 C4.546875 25.078125 4.546875 25.078125 5 27 C3.4375 29.75 3.4375 29.75 2.234375 31.15625 C0.53457647 33.69518957 -0.01450285 36.3100105 -0.8125 39.25 C-1.79296875 42.421875 -1.79296875 42.421875 -3 45 C-6.625 46.5 -6.625 46.5 -10 47 C-12.29917567 49.89896063 -12.08977913 52.40883487 -12 56 C-12.29044914 57.34332728 -12.60955794 58.68225804 -13 60 C-14.32 59.67 -15.64 59.34 -17 59 C-17.57685009 49.19354839 -17.57685009 49.19354839 -14 45 C-11.7215486 43.44398441 -9.46076366 42.23038183 -7 41 C-6.82735674 39.41168201 -6.65570421 37.82325174 -6.48828125 36.234375 C-5.65606434 32.42615043 -3.74660481 29.09151977 -1.9609375 25.6484375 C-0.83428129 22.54326307 -1.15343929 21.14079032 -2 18 C-2.1100837 16.48186896 -2.1742647 14.95955949 -2.1875 13.4375 C-2.20167969 12.69371094 -2.21585938 11.94992188 -2.23046875 11.18359375 C-1.97103451 8.72556424 -1.14136682 7.17083494 0 5 C0.16750414 2.33290931 0.16750414 2.33290931 0 0 Z " fill="#BAA3EB" transform="translate(58,42)"/>
<path d="M0 0 C0.70125 0.495 1.4025 0.99 2.125 1.5 C1.795 2.49 1.465 3.48 1.125 4.5 C-2.10171356 5.88287724 -4.53640438 5.22185851 -7.875 4.5 C-9.08061184 5.48267859 -9.08061184 5.48267859 -8.97265625 7.34765625 C-8.96105469 8.07855469 -8.94945312 8.80945313 -8.9375 9.5625 C-8.916875 10.861875 -8.89625 12.16125 -8.875 13.5 C-6.31351555 13.57115235 -4.16287045 13.5822487 -1.6875 12.875 C-1.089375 12.75125 -0.49125 12.6275 0.125 12.5 C0.785 13.16 1.445 13.82 2.125 14.5 C1.9375 16.5 1.9375 16.5 1.125 18.5 C-2.54794875 20.9486325 -5.60768965 21.33183438 -9.875 20.5 C-13.09454645 17.96546343 -14.57932435 16.38702695 -15.875 12.5 C-16.2436858 7.52274174 -16.03956308 4.45570385 -12.875 0.5 C-8.7378104 -2.49589592 -4.42392472 -2.30813464 0 0 Z " fill="#E9ADD8" transform="translate(144.875,144.5)"/>
<path d="M0 0 C5 0 10 0 15 0 C14.67 1.98 14.34 3.96 14 6 C12.02 6.66 10.04 7.32 8 8 C8 12.29 8 16.58 8 21 C5.69 21 3.38 21 1 21 C0.67 14.07 0.34 7.14 0 0 Z " fill="#F4ED9F" transform="translate(119,115)"/>
<path d="M0 0 C2 0.33333333 4 0.66666667 6 1 C6.33 0.67 6.66 0.34 7 0 C9.33297433 -0.04092937 11.66705225 -0.04241723 14 0 C13.67 1.98 13.34 3.96 13 6 C11.02 6.66 9.04 7.32 7 8 C7 12.29 7 16.58 7 21 C4.69 21 2.38 21 0 21 C-0.19592461 17.68794116 -0.38032746 14.37534146 -0.5625 11.0625 C-0.61857422 10.11697266 -0.67464844 9.17144531 -0.73242188 8.19726562 C-0.78076172 7.29814453 -0.82910156 6.39902344 -0.87890625 5.47265625 C-0.9260376 4.64000244 -0.97316895 3.80734863 -1.02172852 2.94946289 C-1 1 -1 1 0 0 Z " fill="#F5EE9E" transform="translate(61,115)"/>
<path d="M0 0 C3.32675291 0.77180667 4.84009513 2.88322381 6.953125 5.453125 C8.2525 6.5978125 8.2525 6.5978125 9.578125 7.765625 C12.50906927 11.08221983 13.71801557 14.255422 14.953125 18.453125 C15.16453125 19.15308594 15.3759375 19.85304688 15.59375 20.57421875 C15.953125 22.453125 15.953125 22.453125 14.953125 24.453125 C16.933125 24.123125 18.913125 23.793125 20.953125 23.453125 C21.283125 24.773125 21.613125 26.093125 21.953125 27.453125 C20.49489288 27.4801293 19.03651825 27.49952287 17.578125 27.515625 C16.76601562 27.52722656 15.95390625 27.53882812 15.1171875 27.55078125 C12.953125 27.453125 12.953125 27.453125 10.953125 26.453125 C10.390625 24.37890625 10.390625 24.37890625 9.953125 21.765625 C8.69687957 13.71781261 8.69687957 13.71781261 3.953125 7.453125 C1.59400932 6.69920522 1.59400932 6.69920522 -0.984375 6.328125 C-4.04393519 5.80204678 -7.04443641 5.24727349 -10.046875 4.453125 C-7.1873556 0.64043246 -4.78983732 -0.24836193 0 0 Z " fill="#A495D3" transform="translate(68.046875,-0.453125)"/>
<path d="M0 0 C2.24666134 3.36999202 2.2457371 4.56105462 2.1875 8.5 C2.17783203 9.93859375 2.17783203 9.93859375 2.16796875 11.40625 C2 14 2 14 1 17 C1.61875 18.0209375 1.61875 18.0209375 2.25 19.0625 C5.35956488 24.28212677 7 29.93443786 7 36 C9.31 36 11.62 36 14 36 C14.33 36.99 14.66 37.98 15 39 C15.66 39.66 16.32 40.32 17 41 C14.9937811 40.70640699 12.99488234 40.36270588 11 40 C9.80375 39.835 8.6075 39.67 7.375 39.5 C3.65279255 37.84568558 3.2716056 37.3264518 1.625 33.8125 C0.13695178 29.90715825 -0.43225931 26.13639648 -1 22 C-1.99387334 20.66209359 -2.9926892 19.32781878 -4 18 C-3.8125 16.125 -3.8125 16.125 -3 14 C-1.27903802 9.26735454 -0.51556842 4.9838281 0 0 Z " fill="#BDA4EA" transform="translate(114,49)"/>
<path d="M0 0 C0.33 0 0.66 0 1 0 C1.165 1.216875 1.33 2.43375 1.5 3.6875 C2.40621245 7.29320448 3.51180637 8.84226769 6.625 10.875 C16.36311968 16.03968133 27.98672888 16.69108223 38.5625 13.6875 C44.07454664 11.75693047 48.00455051 9.29140871 52 5 C51.773125 6.051875 51.54625 7.10375 51.3125 8.1875 C50.96819556 12.38801417 51.51227742 13.7162062 54 17 C53.01 17.495 53.01 17.495 52 18 C49 14.25 49 14.25 49 12 C47.2675 12.928125 47.2675 12.928125 45.5 13.875 C34.30320033 19.37586673 22.26462319 19.47056301 10.40234375 15.8515625 C9.60957031 15.57054688 8.81679687 15.28953125 8 15 C7.11441406 14.69835937 6.22882813 14.39671875 5.31640625 14.0859375 C2.21982562 12.63425215 1.30760477 10.61520954 -0.1875 7.625 C-1.11172527 4.63904144 -0.84830248 2.96905869 0 0 Z " fill="#C6A9EB" transform="translate(60,55)"/>
<path d="M0 0 C0.99 0 1.98 0 3 0 C4.94115929 3.88231857 4.43994119 7.60511537 3.17578125 11.61328125 C0.49155806 18.50844194 0.49155806 18.50844194 -2 21 C-3.32 21 -4.64 21 -6 21 C-6.44446056 14.18493804 -5.20364816 7.57561644 -1.58203125 1.69921875 C-0.79892578 0.85810547 -0.79892578 0.85810547 0 0 Z " fill="#EBABDD" transform="translate(105,12)"/>
<path d="M0 0 C3.31819035 0.59699659 3.87223164 0.8421685 6.125 3.625 C9.13462026 9.04231647 10.30168229 13.81551314 10 20 C8.68 20.33 7.36 20.66 6 21 C0.21294235 14.63423658 -0.33599843 8.23196155 0 0 Z " fill="#EBACDC" transform="translate(63,12)"/>
<path d="M0 0 C1.32 0.33 2.64 0.66 4 1 C3.67 2.65 3.34 4.3 3 6 C3.804375 6.474375 4.60875 6.94875 5.4375 7.4375 C8 9 8 9 9 10 C9.1875 12.4375 9.1875 12.4375 9 15 C7 17 7 17 4.5625 17.3125 C2 17 2 17 0.1875 15.8125 C-1.36678206 13.44017475 -1.22537188 11.77958655 -1 9 C-1.66 9 -2.32 9 -3 9 C-3.33 7.35 -3.66 5.7 -4 4 C-3.01 3.67 -2.02 3.34 -1 3 C-0.67 2.01 -0.34 1.02 0 0 Z " fill="#F0AED8" transform="translate(51,91)"/>
<path d="M0 0 C2.9719385 1.12451727 5.33440687 2.22293791 8 4 C10.51584891 4.24150773 10.51584891 4.24150773 13.1875 4.125 C14.53908203 4.09792969 14.53908203 4.09792969 15.91796875 4.0703125 C16.94857422 4.03550781 16.94857422 4.03550781 18 4 C18 4.66 18 5.32 18 6 C12.37076548 7.72323506 6.93426084 9 1 9 C-1.00309329 9.31421071 -3.00371336 9.6451046 -5 10 C-4.67 9.01 -4.34 8.02 -4 7 C-4.94875 7.061875 -5.8975 7.12375 -6.875 7.1875 C-7.90625 7.125625 -8.9375 7.06375 -10 7 C-10.66 6.01 -11.32 5.02 -12 4 C-11.38511719 3.96261719 -10.77023438 3.92523438 -10.13671875 3.88671875 C-9.32847656 3.82097656 -8.52023438 3.75523438 -7.6875 3.6875 C-6.88699219 3.62949219 -6.08648437 3.57148437 -5.26171875 3.51171875 C-2.63727666 2.91793306 -1.69179328 2.04219706 0 0 Z " fill="#9E9AE6" transform="translate(64,107)"/>
<path d="M0 0 C0.99 0.33 1.98 0.66 3 1 C3.1620162 12.12511251 3.1620162 12.12511251 2.375 16.375 C1.89814201 19.71300596 2.75007202 21.91194265 4 25 C2.35 26.65 0.7 28.3 -1 30 C-1.66 29.67 -2.32 29.34 -3 29 C-2.649375 27.9275 -2.29875 26.855 -1.9375 25.75 C-1.01081685 22.04326741 -1.05603402 21.3879327 -2 18 C-2.11333058 16.50298215 -2.17464686 15.0012465 -2.1875 13.5 C-2.20167969 12.7471875 -2.21585938 11.994375 -2.23046875 11.21875 C-1.97292994 8.73939331 -1.1525487 7.18758262 0 5 C0.16750414 2.33290931 0.16750414 2.33290931 0 0 Z " fill="#8D86BE" transform="translate(58,42)"/>
<path d="M0 0 C2.5625 0.25 2.5625 0.25 5 1 C6.50662097 4.01324195 6.17770373 6.68286377 6 10 C5.34 10.66 4.68 11.32 4 12 C1.5 11.8125 1.5 11.8125 -1 11 C-3 8 -3 8 -2.75 4.9375 C-2 2 -2 2 0 0 Z " fill="#8C91F5" transform="translate(38,148)"/>
<path d="M0 0 C5.38732394 -0.35915493 5.38732394 -0.35915493 7.8125 1.0625 C9.55729603 3.90927247 9.69042148 6.71846765 10 10 C8.35 10 6.7 10 5 10 C4.67 9.01 4.34 8.02 4 7 C1.61435923 7.57584432 -0.66682784 8.22227595 -3 9 C-3.33 7.68 -3.66 6.36 -4 5 C-3.01 4.67 -2.02 4.34 -1 4 C-0.26676204 1.98491642 -0.26676204 1.98491642 0 0 Z " fill="#DDCBE4" transform="translate(118,89)"/>
<path d="M0 0 C2.5 0.25 2.5 0.25 4.5 2.25 C4.5 3.24 4.5 4.23 4.5 5.25 C3.84 5.25 3.18 5.25 2.5 5.25 C2.17 4.59 1.84 3.93 1.5 3.25 C0.51 3.25 -0.48 3.25 -1.5 3.25 C-1.83 4.24 -2.16 5.23 -2.5 6.25 C-1.51 6.58 -0.52 6.91 0.5 7.25 C0.17 8.9 -0.16 10.55 -0.5 12.25 C-6.25 12.375 -6.25 12.375 -8.5 11.25 C-8.17 9.6 -7.84 7.95 -7.5 6.25 C-6.84 6.25 -6.18 6.25 -5.5 6.25 C-5.37625 5.63125 -5.2525 5.0125 -5.125 4.375 C-4.20067689 1.23230141 -3.27258943 0.32725894 0 0 Z " fill="#D3E2EA" transform="translate(73.5,50.75)"/>
<path d="M0 0 C1.66666667 1.66666667 3.33333333 3.33333333 5 5 C5.598125 5.45375 6.19625 5.9075 6.8125 6.375 C8.76866678 9.05185981 8.18066268 11.80829261 8 15 C7.01 15.33 6.02 15.66 5 16 C5 15.34 5 14.68 5 14 C3.68 13.67 2.36 13.34 1 13 C1 11.68 1 10.36 1 9 C2.32 9.33 3.64 9.66 5 10 C5 9.34 5 8.68 5 8 C1.60268371 5.90934382 -1.04269405 5.57901001 -5 6 C-6.7511573 7.4166747 -6.7511573 7.4166747 -8 9 C-8.66 9 -9.32 9 -10 9 C-8.63016497 5.83884224 -8.0109362 5.0072908 -5 3 C-2.3125 2.875 -2.3125 2.875 0 3 C0 2.01 0 1.02 0 0 Z " fill="#C5ACE9" transform="translate(55,84)"/>
<path d="M0 0 C2.22189824 2.22189824 2.92598892 4.08482708 4 7 C4.66 7 5.32 7 6 7 C7.75 9.25 7.75 9.25 9 12 C8.13609919 14.74877531 7.04480351 15.95519649 5 18 C3.68 18 2.36 18 1 18 C1.226875 17.113125 1.45375 16.22625 1.6875 15.3125 C2.06327594 11.32927499 1.16689368 10.25034052 -1 7 C-1.6875 4.1875 -1.6875 4.1875 -2 2 C-1.34 2 -0.68 2 0 2 C0 1.34 0 0.68 0 0 Z " fill="#B8A2E6" transform="translate(58,23)"/>
<path d="M0 0 C2.375 0.75 2.375 0.75 3.375 1.75 C3.6732732 4.58359542 3.73102594 6.18785378 2.1875 8.625 C0.375 9.75 0.375 9.75 -2.25 9.5 C-4.625 8.75 -4.625 8.75 -5.625 7.75 C-5.9232732 4.91640458 -5.98102594 3.31214622 -4.4375 0.875 C-2.625 -0.25 -2.625 -0.25 0 0 Z " fill="#F2ACD8" transform="translate(119.625,98.25)"/>
<path d="M0 0 C3.25 -0.25 3.25 -0.25 7 0 C7.639375 0.66 8.27875 1.32 8.9375 2 C10.75795094 4.17954965 10.75795094 4.17954965 12.94921875 4.1953125 C13.66722656 4.17210938 14.38523437 4.14890625 15.125 4.125 C17.043125 4.063125 17.043125 4.063125 19 4 C19.66 4.66 20.32 5.32 21 6 C19.84371094 6.09087891 19.84371094 6.09087891 18.6640625 6.18359375 C17.66117188 6.26738281 16.65828125 6.35117188 15.625 6.4375 C14.12839844 6.55931641 14.12839844 6.55931641 12.6015625 6.68359375 C10.02072387 6.84965626 10.02072387 6.84965626 8 8 C5.30434798 7.83219837 2.67594446 7.38844355 0 7 C0 4.66666667 0 2.33333333 0 0 Z " fill="#9596E9" transform="translate(83,107)"/>
<path d="M0 0 C1.62329063 2.86574471 2.25523882 4.93505803 2.265625 8.22265625 C2.26820312 9.00833984 2.27078125 9.79402344 2.2734375 10.60351562 C2.26570313 11.41498047 2.25796875 12.22644531 2.25 13.0625 C2.25773437 13.87783203 2.26546875 14.69316406 2.2734375 15.53320312 C2.27085938 16.31759766 2.26828125 17.10199219 2.265625 17.91015625 C2.26336914 18.62308838 2.26111328 19.33602051 2.25878906 20.07055664 C2 22 2 22 0 25 C-0.99 24.34 -1.98 23.68 -3 23 C-2.34 19.7 -1.68 16.4 -1 13 C-1.33 13 -1.66 13 -2 13 C-2.05416188 11.39620659 -2.09286638 9.79188594 -2.125 8.1875 C-2.14820312 7.29417969 -2.17140625 6.40085937 -2.1953125 5.48046875 C-2 3 -2 3 0 0 Z " fill="#8F85C0" transform="translate(114,4)"/>
<path d="M0 0 C0.66 1.32 1.32 2.64 2 4 C1.030625 4.433125 0.06125 4.86625 -0.9375 5.3125 C-4.27731765 6.7014861 -4.27731765 6.7014861 -5 10 C-5 10.804375 -5 11.60875 -5 12.4375 C-5 14.83602969 -5.32264025 16.71391086 -6 19 C-7.32 18.67 -8.64 18.34 -10 18 C-10.57685009 8.19354839 -10.57685009 8.19354839 -7 4 C-4.7215486 2.44398441 -2.46076366 1.23038183 0 0 Z " fill="#948ACB" transform="translate(51,83)"/>
<path d="M0 0 C3.96 0 7.92 0 12 0 C11.625 2.9375 11.625 2.9375 11 6 C8.17116253 7.41441874 6.12623255 7.31900332 3 7 C1.125 5.1875 1.125 5.1875 0 3 C0 2.01 0 1.02 0 0 Z " fill="#988BCD" transform="translate(80,60)"/>
<path d="M0 0 C2.24666134 3.36999202 2.2457371 4.56105462 2.1875 8.5 C2.17783203 9.93859375 2.17783203 9.93859375 2.16796875 11.40625 C2 14 2 14 1 17 C1.87914688 19.6569191 1.87914688 19.6569191 3 22 C0.625 21.6875 0.625 21.6875 -2 21 C-4 18 -4 18 -3.75 16.1875 C-3.18368059 14.53573505 -2.59673517 12.89102172 -2 11.25 C-0.83443484 7.46191324 -0.40741951 3.93838856 0 0 Z " fill="#736E9F" transform="translate(114,49)"/>
<path d="M0 0 C1.32 0.33 2.64 0.66 4 1 C3.45276317 4.37462715 2.9451 6.08235 1 9 C0.61500109 10.65549531 0.27206865 12.3222433 0 14 C-0.33 14 -0.66 14 -1 14 C-1 12.35 -1 10.7 -1 9 C-1.66 9 -2.32 9 -3 9 C-3.33 7.35 -3.66 5.7 -4 4 C-3.01 3.67 -2.02 3.34 -1 3 C-0.67 2.01 -0.34 1.02 0 0 Z " fill="#DFD0E6" transform="translate(51,91)"/>
<path d="M0 0 C1.01102038 3.03306113 1.1982535 5.25940239 1.25 8.4375 C1.27578125 9.38496094 1.3015625 10.33242187 1.328125 11.30859375 C0.94918843 14.41677581 0.1685544 15.77354731 -2 18 C-2.66 18 -3.32 18 -4 18 C-3.71949194 15.18596699 -3.42618696 12.37432747 -3.125 9.5625 C-3.04636719 8.76005859 -2.96773437 7.95761719 -2.88671875 7.13085938 C-2.66154237 5.07829006 -2.33777413 3.03706991 -2 1 C-1.34 0.67 -0.68 0.34 0 0 Z " fill="#8C87C2" transform="translate(131,90)"/>
<path d="M0 0 C1.134375 0.020625 2.26875 0.04125 3.4375 0.0625 C4.5625 3.8125 4.5625 3.8125 3.4375 6.0625 C1.1275 6.0625 -1.1825 6.0625 -3.5625 6.0625 C-3.94468767 4.40635343 -4.27645102 2.73792976 -4.5625 1.0625 C-3.5625 0.0625 -3.5625 0.0625 0 0 Z " fill="#D5DFE8" transform="translate(103.5625,56.9375)"/>
<path d="M0 0 C2 1 2 1 2.6875 2.9375 C3 5 3 5 2 7 C3.98 6.67 5.96 6.34 8 6 C8.33 7.32 8.66 8.64 9 10 C6.03 10 3.06 10 0 10 C-0.87890625 3.06640625 -0.87890625 3.06640625 -1 1 C-0.67 0.67 -0.34 0.34 0 0 Z " fill="#8B85C0" transform="translate(81,17)"/>
<path d="M0 0 C0.33 0.99 0.66 1.98 1 3 C-2.09579751 6.30218401 -4.45480271 7.33828546 -8.875 7.5 C-13.92128654 7.31869629 -16.8945321 5.85597767 -21 3 C-19.68 2.34 -18.36 1.68 -17 1 C-16.2884375 1.7425 -16.2884375 1.7425 -15.5625 2.5 C-11.80150806 4.70155626 -8.25997018 4.74256361 -4 4 C-1.43009002 2.18735352 -1.43009002 2.18735352 0 0 Z " fill="#A39AE7" transform="translate(126,106)"/>
<path d="M0 0 C0.99 0.33 1.98 0.66 3 1 C3 2.32 3 3.64 3 5 C5.31 5 7.62 5 10 5 C10.33 5.99 10.66 6.98 11 8 C11.66 8.66 12.32 9.32 13 10 C8.51474352 9.343621 4.33085971 8.29925791 0 7 C0 4.69 0 2.38 0 0 Z " fill="#8A85C1" transform="translate(118,80)"/>
<path d="M0 0 C2.375 0.25 2.375 0.25 5 1 C6.375 2.8125 6.375 2.8125 7 5 C6.625 7.25 6.625 7.25 6 9 C4.68 9 3.36 9 2 9 C1.855625 7.88625 1.71125 6.7725 1.5625 5.625 C1.21627965 2.17857953 1.21627965 2.17857953 0 0 Z " fill="#D8D4E8" transform="translate(121,90)"/>
<path d="M0 0 C1.32 0.33 2.64 0.66 4 1 C4.33 6.28 4.66 11.56 5 17 C3.14170149 13.28340297 2.26044439 10.27474722 1.375 6.25 C1.11460938 5.07953125 0.85421875 3.9090625 0.5859375 2.703125 C0.39257812 1.81109375 0.19921875 0.9190625 0 0 Z " fill="#8D88CA" transform="translate(109,40)"/>
<path d="M0 0 C1.23922223 3.71766668 0.57018942 5.43889537 -0.4375 9.1875 C-0.72496094 10.27417969 -1.01242188 11.36085938 -1.30859375 12.48046875 C-1.53675781 13.31191406 -1.76492187 14.14335938 -2 15 C-2.66 15 -3.32 15 -4 15 C-4 11.04 -4 7.08 -4 3 C-3.01 3 -2.02 3 -1 3 C-0.67 2.01 -0.34 1.02 0 0 Z " fill="#C2A9ED" transform="translate(64,38)"/>
<path d="M0 0 C1.32 0.66 2.64 1.32 4 2 C3.484375 2.94875 2.96875 3.8975 2.4375 4.875 C1.7259375 6.421875 1.7259375 6.421875 1 8 C1.33 8.66 1.66 9.32 2 10 C0.35 9.67 -1.3 9.34 -3 9 C-2.44271087 5.65626525 -1.64826111 2.96687001 0 0 Z " fill="#7772A7" transform="translate(110,29)"/>
<path d="M0 0 C2.91517292 1.07401108 4.77810176 1.77810176 7 4 C5.02 4.99 3.04 5.98 1 7 C0.67 6.01 0.34 5.02 0 4 C-0.99 3.67 -1.98 3.34 -3 3 C-2.01 2.01 -1.02 1.02 0 0 Z " fill="#848FF6" transform="translate(65,110)"/>
<path d="M0 0 C2.38564077 0.57584432 4.66682784 1.22227595 7 2 C6.67 3.65 6.34 5.3 6 7 C5.34 7 4.68 7 4 7 C4 6.34 4 5.68 4 5 C2.68 4.67 1.36 4.34 0 4 C0 2.68 0 1.36 0 0 Z " fill="#DACEE3" transform="translate(56,93)"/>
<path d="M0 0 C0.66 1.32 1.32 2.64 2 4 C-3.41538462 7.07692308 -3.41538462 7.07692308 -6.375 6.6875 C-6.91125 6.460625 -7.4475 6.23375 -8 6 C-3.375 1.125 -3.375 1.125 0 0 Z " fill="#7571A1" transform="translate(51,83)"/>
<path d="M0 0 C1.98 0 3.96 0 6 0 C6.66 1.65 7.32 3.3 8 5 C7.0925 4.62875 6.185 4.2575 5.25 3.875 C2.11902985 2.69640701 2.11902985 2.69640701 -0.375 3.875 C-0.91125 4.24625 -1.4475 4.6175 -2 5 C-1.34 3.35 -0.68 1.7 0 0 Z " fill="#988CD0" transform="translate(96,51)"/>
<path d="M0 0 C2.09782787 2.09782787 2.6509396 3.3799207 3.625 6.125 C3.88539062 6.84945313 4.14578125 7.57390625 4.4140625 8.3203125 C4.70410156 9.15175781 4.70410156 9.15175781 5 10 C3.68 10.33 2.36 10.66 1 11 C0 8 -1 5 -2 2 C-1.34 2 -0.68 2 0 2 C0 1.34 0 0.68 0 0 Z " fill="#7873A6" transform="translate(58,23)"/>
<path d="M0 0 C0.99 0.33 1.98 0.66 3 1 C3.02721176 2.89575251 3.04649136 4.79161979 3.0625 6.6875 C3.07410156 7.74324219 3.08570313 8.79898438 3.09765625 9.88671875 C3.00865425 12.72410262 2.64939838 15.2438919 2 18 C1.67 18 1.34 18 1 18 C0.67 12.06 0.34 6.12 0 0 Z " fill="#9B8CD0" transform="translate(58,42)"/>
<path d="M0 0 C0.66 0.33 1.32 0.66 2 1 C1.67 4.3 1.34 7.6 1 11 C-0.32 10.67 -1.64 10.34 -3 10 C-2.01 6.7 -1.02 3.4 0 0 Z " fill="#706B97" transform="translate(54,71)"/>
<path d="M0 0 C-0.99 1.485 -0.99 1.485 -2 3 C-3.64767247 2.71890887 -5.29313145 2.42481474 -6.9375 2.125 C-8.31228516 1.88136719 -8.31228516 1.88136719 -9.71484375 1.6328125 C-10.46894531 1.42398437 -11.22304687 1.21515625 -12 1 C-12.33 0.34 -12.66 -0.32 -13 -1 C-11.58566794 -1.2236337 -10.16832382 -1.42826476 -8.75 -1.625 C-7.56664063 -1.79902344 -7.56664063 -1.79902344 -6.359375 -1.9765625 C-3.67847541 -2.00319395 -2.27305911 -1.36592084 0 0 Z " fill="#7D7AAE" transform="translate(112,2)"/>
<path d="M0 0 C1.65 0.33 3.3 0.66 5 1 C3.70700306 3.88437779 2.34058637 5.87219421 0 8 C-0.66 7.67 -1.32 7.34 -2 7 C-1.34 4.69 -0.68 2.38 0 0 Z " fill="#6F6A9A" transform="translate(57,64)"/>
<path d="M0 0 C1.8125 0.125 1.8125 0.125 4 1 C5.75 4.0625 5.75 4.0625 7 7 C4.625 6.6875 4.625 6.6875 2 6 C0 3 0 3 0 0 Z " fill="#7F79AF" transform="translate(110,64)"/>
<path d="M0 0 C2.5625 0.1875 2.5625 0.1875 4.5625 2.1875 C4.5625 3.1775 4.5625 4.1675 4.5625 5.1875 C3.9025 5.1875 3.2425 5.1875 2.5625 5.1875 C2.2325 4.5275 1.9025 3.8675 1.5625 3.1875 C0.5725 3.1875 -0.4175 3.1875 -1.4375 3.1875 C-1.7675 3.8475 -2.0975 4.5075 -2.4375 5.1875 C-3.0975 5.1875 -3.7575 5.1875 -4.4375 5.1875 C-3.32386364 0.25568182 -3.32386364 0.25568182 0 0 Z " fill="#9283CD" transform="translate(73.4375,50.8125)"/>
<path d="M0 0 C1 4 1 4 0 6 C-0.66 5.67 -1.32 5.34 -2 5 C-2 4.67 -2 4.34 -2 4 C-4.31 3.34 -6.62 2.68 -9 2 C-9 1.67 -9 1.34 -9 1 C-4.545 0.505 -4.545 0.505 0 0 Z " fill="#9686CE" transform="translate(91,60)"/>
<path d="M0 0 C1.65 0 3.3 0 5 0 C5.33 1.32 5.66 2.64 6 4 C4.02 4 2.04 4 0 4 C0 2.68 0 1.36 0 0 Z " fill="#E7CCDF" transform="translate(67,58)"/>
<path d="M0 0 C0.66 0 1.32 0 2 0 C2 0.99 2 1.98 2 3 C3.32 3 4.64 3 6 3 C6.33 2.34 6.66 1.68 7 1 C7 2.32 7 3.64 7 5 C4.69 5 2.38 5 0 5 C-0.33 4.34 -0.66 3.68 -1 3 C-0.67 2.01 -0.34 1.02 0 0 Z " fill="#C8B2EC" transform="translate(72,107)"/>
<path d="M0 0 C0.70125 0.01417969 1.4025 0.02835937 2.125 0.04296875 C3.176875 0.05263672 3.176875 0.05263672 4.25 0.0625 C6.125 0.23046875 6.125 0.23046875 8.125 1.23046875 C8.125 1.89046875 8.125 2.55046875 8.125 3.23046875 C3.60407032 4.68653394 0.60851204 3.50079716 -3.875 2.23046875 C-1.875 0.23046875 -1.875 0.23046875 0 0 Z " fill="#7975A5" transform="translate(63.875,-0.23046875)"/>
<path d="M0 0 C1.65 0 3.3 0 5 0 C5 1.32 5 2.64 5 4 C3.35 4 1.7 4 0 4 C0 2.68 0 1.36 0 0 Z " fill="#E8CBDF" transform="translate(101,58)"/>
<path d="M0 0 C1.98 0.495 1.98 0.495 4 1 C3.01 2.485 3.01 2.485 2 4 C1.60612212 6.32387947 1.26513915 8.65793749 1 11 C0.34 11 -0.32 11 -1 11 C-1.0270043 9.54176788 -1.04639787 8.08339325 -1.0625 6.625 C-1.07410156 5.81289062 -1.08570313 5.00078125 -1.09765625 4.1640625 C-1 2 -1 2 0 0 Z " fill="#7674A9" transform="translate(56,6)"/>
<path d="M0 0 C3.48331435 3.01887244 4.79157144 5.56909529 6 10 C5.34 10 4.68 10 4 10 C2.35 7.03 0.7 4.06 -1 1 C-0.67 0.67 -0.34 0.34 0 0 Z " fill="#CBAEEA" transform="translate(72,6)"/>
<path d="M0 0 C2.375 -0.1875 2.375 -0.1875 5 0 C5.66 0.99 6.32 1.98 7 3 C4.36 3 1.72 3 -1 3 C-0.67 2.01 -0.34 1.02 0 0 Z " fill="#8A90F6" transform="translate(114,148)"/>
<path d="M0 0 C2.625 -0.1875 2.625 -0.1875 5 0 C5.33 0.99 5.66 1.98 6 3 C3.36 3 0.72 3 -2 3 C-1.34 2.01 -0.68 1.02 0 0 Z " fill="#8B95F1" transform="translate(105,119)"/>
<path d="M0 0 C0.99 0.33 1.98 0.66 3 1 C3 2.32 3 3.64 3 5 C3.99 5.33 4.98 5.66 6 6 C4.02 6.33 2.04 6.66 0 7 C0 4.69 0 2.38 0 0 Z " fill="#918CC9" transform="translate(118,80)"/>
<path d="M0 0 C0.66 0 1.32 0 2 0 C2 0.66 2 1.32 2 2 C2.66 2 3.32 2 4 2 C3.67 3.65 3.34 5.3 3 7 C1.68 7 0.36 7 -1 7 C-0.67 4.69 -0.34 2.38 0 0 Z " fill="#67648F" transform="translate(60,34)"/>
<path d="M0 0 C1.32 0 2.64 0 4 0 C3.34 1.98 2.68 3.96 2 6 C1.01 6 0.02 6 -1 6 C-0.67 4.02 -0.34 2.04 0 0 Z " fill="#6F6A9C" transform="translate(128,102)"/>
<path d="M0 0 C1.20628008 2.33214148 2.1654738 4.49642139 3 7 C1.68 7 0.36 7 -1 7 C-1.33 5.02 -1.66 3.04 -2 1 C-1.34 0.67 -0.68 0.34 0 0 Z " fill="#7A75A5" transform="translate(117,71)"/>
<path d="M0 0 C3.1875 1.9375 3.1875 1.9375 6 4 C4.3125 4.75 4.3125 4.75 2 5 C-0.75 3.0625 -0.75 3.0625 -3 1 C-2.01 0.67 -1.02 0.34 0 0 Z " fill="#9995E4" transform="translate(108,107)"/>
<path d="M0 0 C1.9375 0.8125 1.9375 0.8125 4 2 C4.33 2.99 4.66 3.98 5 5 C4.34 5 3.68 5 3 5 C2.67 5.66 2.34 6.32 2 7 C0 4 0 4 0 0 Z " fill="#7A76A9" transform="translate(75,6)"/>
<path d="M0 0 C0.99 0.33 1.98 0.66 3 1 C2.67 2.32 2.34 3.64 2 5 C1.01 5 0.02 5 -1 5 C-0.67 3.35 -0.34 1.7 0 0 Z " fill="#EDACD7" transform="translate(120,91)"/>
<path d="M0 0 C1.32 0.33 2.64 0.66 4 1 C3.67 2.32 3.34 3.64 3 5 C2.01 4.67 1.02 4.34 0 4 C0 2.68 0 1.36 0 0 Z " fill="#EAAAD6" transform="translate(51,91)"/>
<path d="M0 0 C1.65 0 3.3 0 5 0 C5 0.99 5 1.98 5 3 C3.35 3 1.7 3 0 3 C0 2.01 0 1.02 0 0 Z " fill="#EEAFE5" transform="translate(84,63)"/>
<path d="M0 0 C2.60018816 3.90028225 2.15085514 7.47434569 2 12 C-0.29632557 7.56043724 -1.20238143 4.94312365 0 0 Z " fill="#9D97DC" transform="translate(112,45)"/>
<path d="" fill="#000000" transform="translate(0,0)"/>
<path d="" fill="#000000" transform="translate(0,0)"/>
<path d="" fill="#000000" transform="translate(0,0)"/>
<path d="" fill="#000000" transform="translate(0,0)"/>
<path d="" fill="#000000" transform="translate(0,0)"/>
<path d="" fill="#000000" transform="translate(0,0)"/>
<path d="" fill="#000000" transform="translate(0,0)"/>
<path d="" fill="#000000" transform="translate(0,0)"/>
<path d="" fill="#000000" transform="translate(0,0)"/>
<path d="" fill="#000000" transform="translate(0,0)"/>
<path d="" fill="#000000" transform="translate(0,0)"/>
<path d="" fill="#000000" transform="translate(0,0)"/>
<path d="" fill="#000000" transform="translate(0,0)"/>
<path d="" fill="#000000" transform="translate(0,0)"/>
<path d="" fill="#000000" transform="translate(0,0)"/>
</svg>
